<svg viewBox="0 0 155 155" fill="none" xmlns="http://www.w3.org/2000/svg" aria-hidden="true">
  <defs>
    <pattern id="a2ee-hatch" width="4" height="4" patternUnits="userSpaceOnUse" patternTransform="rotate(45)">
      <line x1="0" y1="0" x2="0" y2="4" stroke="#5c5c5c" stroke-width="0.9"/>
    </pattern>
  </defs>
  <path
    d="M12.8,65.9 L33.3,75.5 L31.5,84.2 L36.5,92.3 L27.9,101.9 L39.2,109.6 L33.7,134.8 L39.8,138.3 L54.6,127.5 L63,134.6 L66.9,127.5 L70.9,128.2 L69.4,133.3 L89.7,131.5 L85.2,119.1 L94.5,112.6 L97.3,92 L103.5,96.3 L107.3,88.3 L122.9,89.3 L122.8,79.4 L142.2,68.7 L134.7,50.6 L138.3,37.7 L129.3,22.7 L108.8,16.7 L108,22.8 L111.8,26.3 L110.5,34.7 L96.1,61.7 L84.5,63.9 L90.3,57 L81,60.2 L70.8,48.3 L64.5,52.2 L74.2,37.5 L66.6,26.6 L65.5,32.2 L59.4,28.5 L63.4,36.5 L60.8,44 L45.9,39.3 L47.1,48.7 L58.6,57.5 L56.8,69.8 L52,74.5 L21,46.8 L20.7,59 L12.8,65.9 Z"
    stroke="#454545"
    stroke-width="1"
    fill="rgba(255,255,255,0.03)"
  />
  <path
    d="M68 52 L98 48 L108 62 L102 82 L78 88 L62 72 Z"
    stroke="#4a4a4a"
    stroke-width="1"
    fill="url(#a2ee-hatch)"
  />
  <circle cx="82.6" cy="67.5" r="34" stroke="#f0f0f0" stroke-width="0.9" stroke-dasharray="2.5 3.5" opacity="0.5"/>
  <circle cx="82.6" cy="67.5" r="21" stroke="#f0f0f0" stroke-width="0.9" stroke-dasharray="2.5 3.5" opacity="0.42"/>
  <path d="M82.6 67.5 L82.6 28" stroke="#ff3d9a" stroke-width="1.1" stroke-dasharray="3.5 3.5" stroke-linecap="round"/>
  <path d="M82.6 67.5 L40 40" stroke="#ff3d9a" stroke-width="1.1" stroke-dasharray="3.5 3.5" stroke-linecap="round"/>
  <circle cx="82.6" cy="67.5" r="4" fill="#ff3d9a"/>
</svg>
